PathFileType  4	(X/Y/Z) C:\Users\antoi\Documents\MyRepositories\mobilecap\ResultsAnalysis
DataRate	CameraRate	NumFrames	NumMarkers	Units	OrigDataRate	OrigDataStartFrame	OrigNumFrames
100.0	100.0	4	51	mm	100.0	41	160
Frame#	Time	r_knee			r_shank_antsup			r_ankle			r_calc			r_5meta			r_toe			L_knee			L_shank_antsup			L_ankle			L_calc			L_5meta			L_toe			r_sh2			r_sh3			r_sh4			L_sh2			L_sh3			r_thigh1			r_thigh2			r_thigh3			r_thigh4			r_thigh5			L_thigh1			L_thigh2			L_thigh3			L_thigh4			r.ASIS			r.PSIS			L.ASIS			L.PSIS			C7			R_Shoulder			L_Shoulder			R_Sternum			L_Sternum			R_humerus			R_elbow_med			R_elbow_lat			R_forearm			R_wrist_radius			R_wrist_ulna			L_humerus			L_elbow_med			L_elbow_lat			L_forearm			L_wrist_radius			L_wrist_ulna			R_HJC			L_HJC			R_HJC_reg			L_HJC_reg			
		X1	Y1	Z1	X2	Y2	Z2	X3	Y3	Z3	X4	Y4	Z4	X5	Y5	Z5	X6	Y6	Z6	X7	Y7	Z7	X8	Y8	Z8	X9	Y9	Z9	X10	Y10	Z10	X11	Y11	Z11	X12	Y12	Z12	X13	Y13	Z13	X14	Y14	Z14	X15	Y15	Z15	X16	Y16	Z16	X17	Y17	Z17	X18	Y18	Z18	X19	Y19	Z19	X20	Y20	Z20	X21	Y21	Z21	X22	Y22	Z22	X23	Y23	Z23	X24	Y24	Z24	X25	Y25	Z25	X26	Y26	Z26	X27	Y27	Z27	X28	Y28	Z28	X29	Y29	Z29	X30	Y30	Z30	X31	Y31	Z31	X32	Y32	Z32	X33	Y33	Z33	X34	Y34	Z34	X35	Y35	Z35	X36	Y36	Z36	X37	Y37	Z37	X38	Y38	Z38	X39	Y39	Z39	X40	Y40	Z40	X41	Y41	Z41	X42	Y42	Z42	X43	Y43	Z43	X44	Y44	Z44	X45	Y45	Z45	X46	Y46	Z46	X47	Y47	Z47	X48	Y48	Z48	X49	Y49	Z49	X50	Y50	Z50	X51	Y51	Z51	

41	0.40000000	233.87670	543.29706	-130.05824	253.26638	412.88279	-149.45741	122.52220	97.74165	-176.02647	58.29636	67.95177	-227.26468	249.97301	35.73031	-124.06097	292.93884	58.83081	-193.93922	382.16116	575.30193	-484.74782	411.95048	465.89149	-474.70015	251.91381	149.58402	-420.86934	200.17930	141.29229	-351.85002	365.35364	44.60294	-468.52954	414.44934	69.90384	-413.95053	241.59391	302.63605	-176.05302	190.55108	407.33159	-104.76287	184.26799	290.81253	-114.99258	323.30441	484.26296	-489.62921	312.19305	363.86354	-498.95338	351.55551	768.10592	-136.76895	343.06785	658.01010	-156.00027	309.82741	627.54379	-104.18308	265.93289	759.49552	-61.87616	259.49533	647.29544	-89.57997	363.86790	835.78937	-483.62871	428.92764	714.82802	-489.39804	266.05721	783.34236	-506.05037	333.28671	661.72437	-508.83128	324.35994	1047.99213	-133.95657	112.04521	1083.23966	-200.53152	298.15525	1039.44713	-397.85507	98.98858	1080.79127	-297.31195	213.41362	1582.65957	-287.43334	288.32935	1513.31367	-104.63516	259.95894	1511.42762	-466.32832	341.24920	1486.61445	-269.11261	334.77483	1482.52184	-316.20319	293.80673	1348.79574	-23.95838	192.95247	1132.11884	-39.18621	229.35622	1156.08478	32.15362	341.03001	1021.98884	13.09399	391.00621	910.75220	9.70794	367.15067	896.35201	42.51995	215.12197	1340.34516	-545.12429	92.66277	1155.15455	-492.94265	120.24248	1162.77224	-569.01987	190.00027	1008.48287	-555.02398	195.64429	889.72985	-576.64277	160.41234	893.51862	-610.19532	237.12285	968.74798	-159.32456	218.97325	951.35685	-371.23117	249.01237	968.21699	-159.84562	225.60118	963.82869	-333.33960	
42	0.41000000	237.87572	542.73030	-130.00453	256.06147	412.20948	-149.52474	122.80317	98.05007	-176.02353	58.15806	68.22084	-227.26855	250.11587	35.84160	-124.03472	293.07068	58.73760	-193.89211	393.11174	574.17062	-482.63207	427.26614	466.05174	-474.05884	285.76645	139.92508	-423.40283	235.67768	127.95007	-353.79056	404.50267	42.07768	-473.88140	452.98064	70.06395	-419.93651	243.57968	302.10827	-176.16261	193.37261	407.10696	-104.73514	186.13380	290.65702	-115.01428	337.52545	479.91961	-487.57098	332.76567	359.16648	-498.67092	358.25547	766.44082	-136.82135	348.91971	656.62912	-156.02773	314.98908	626.30053	-104.44310	272.52919	758.64785	-61.90673	264.64733	646.36636	-89.77322	374.62244	835.11235	-481.42781	439.71727	714.16933	-486.67575	276.77628	782.73241	-505.04531	344.34733	661.09907	-507.15422	333.50928	1046.88746	-133.27917	121.55348	1082.66086	-200.67756	308.45054	1038.51886	-397.14038	108.88046	1080.19206	-297.53648	223.26899	1581.76104	-290.70934	298.37297	1514.40538	-107.27860	269.37258	1508.62544	-468.85774	351.14571	1485.93028	-271.49337	344.64358	1481.35441	-318.54080	304.51289	1350.58807	-25.36311	203.94237	1133.55563	-38.33200	241.10585	1158.06453	32.47757	353.04272	1024.32814	12.76203	403.53766	913.30316	9.34142	380.10569	898.94009	42.46964	223.77613	1337.15925	-546.11442	102.00690	1152.01378	-491.76656	127.94798	1159.64858	-568.38604	198.94462	1005.80878	-555.48450	205.79099	887.39729	-577.18446	169.86238	890.68754	-609.75245	246.21253	967.85370	-158.97750	228.94642	950.56978	-370.96616	258.10032	967.46865	-159.41440	235.39589	963.04804	-332.89891	
43	0.42000000	241.94811	542.12418	-129.90422	258.87532	411.49120	-149.52243	123.07523	98.32543	-176.02748	57.96483	68.50749	-227.25545	250.20201	35.90012	-123.99606	293.17775	58.64237	-193.83596	403.41381	572.40654	-480.42707	441.91233	465.97170	-473.31162	319.84060	131.15402	-426.31051	271.55723	115.63714	-356.11319	443.28897	40.62724	-479.56871	491.08761	71.08639	-426.17821	245.56759	301.54982	-176.19962	196.18296	406.85057	-104.66758	187.98707	290.47514	-114.99236	351.34242	475.15419	-485.51108	353.10718	354.35793	-498.38385	365.03949	764.72554	-136.87178	354.45779	655.07234	-156.15793	320.20855	624.99848	-104.70298	279.21709	757.72108	-61.92226	269.86598	645.36541	-89.95580	385.02596	833.77397	-479.28232	449.91129	712.73036	-483.94191	287.08288	781.61942	-503.87479	354.68087	659.85168	-505.21613	342.70537	1045.71061	-132.61098	131.12792	1081.95673	-200.90077	318.89853	1037.35176	-396.46424	118.88725	1079.42634	-297.82532	233.17469	1580.67906	-294.18102	308.42422	1515.37284	-110.09903	278.87652	1505.63264	-471.53251	361.06608	1485.06776	-274.01288	354.55553	1480.00721	-321.01335	315.12341	1352.27624	-26.88998	214.85762	1134.90352	-37.66150	252.70759	1159.98721	32.65991	364.91333	1026.57162	12.40565	415.88975	915.75040	9.03081	392.83136	901.43962	42.46454	232.56789	1333.77056	-547.21098	111.62432	1148.63882	-490.59100	135.87548	1156.28342	-567.70701	208.29304	1002.99931	-555.93763	216.25050	884.84786	-577.70073	179.68953	887.66616	-609.28212	255.37175	966.86576	-158.61956	239.04660	949.56741	-370.68137	267.24616	966.59204	-159.00026	245.33038	962.06376	-332.50015	
44	0.43000000	246.07646	541.48659	-129.75018	261.70790	410.73607	-149.45100	123.34672	98.57401	-176.03580	57.75808	68.80294	-227.22878	250.23299	35.90518	-123.94574	293.26320	58.54416	-193.76965	413.07904	570.03568	-478.15457	455.87704	465.69530	-472.44343	354.06396	123.44958	-429.63296	307.64913	104.52593	-358.91907	481.67335	40.38596	-485.44021	528.66789	73.01916	-432.44855	247.56332	300.97059	-176.16230	198.98747	406.57242	-104.56082	189.83751	290.27856	-114.92518	364.80074	470.01877	-483.54237	373.28083	349.53191	-498.15522	371.89890	762.96534	-136.89339	359.70134	653.35145	-156.35931	325.46186	623.64556	-104.93597	285.97986	756.72297	-61.91901	275.13612	644.30424	-90.11099	395.09454	831.79080	-477.20138	459.51947	710.51681	-481.22176	297.04100	780.02281	-502.60382	364.28804	657.99501	-503.07638	351.96018	1044.46035	-131.95244	140.78933	1081.13651	-201.19939	329.50390	1035.98217	-395.88630	129.03297	1078.49398	-298.16582	243.13264	1579.41784	-297.84248	318.49284	1516.21645	-113.09423	288.47025	1502.45376	-474.35146	371.01865	1484.04085	-276.67348	364.50775	1478.48504	-323.62373	325.64502	1353.85505	-28.53705	225.69248	1136.16617	-37.18066	264.15365	1161.84739	32.69707	376.64351	1028.71199	12.02446	428.04824	918.07672	8.77795	405.32471	903.84178	42.50560	241.49511	1330.18921	-548.42661	121.51677	1145.03671	-489.42907	144.04501	1152.68624	-567.00139	218.12085	1000.07495	-556.39822	227.02115	882.08074	-578.19254	189.84217	884.44989	-608.79675	264.62793	965.78257	-158.27809	249.28352	948.37727	-370.40478	276.45101	965.60437	-158.60726	255.40504	960.87445	-332.18539	
